<svg width="32" height="32" viewBox="0 0 32 32" fill="none" xmlns="http://www.w3.org/2000/svg">
<path d="M14.5333 2.80005C8.4 3.46672 3.46666 8.40005 2.8 14.4001C2.13333 20.6667 5.73333 26.2667 11.2 28.4001C11.6 28.5334 12 28.2667 12 27.7334V25.6001C12 25.6001 11.4667 25.7334 10.8 25.7334C8.93333 25.7334 8.13333 24.1334 8 23.2001C7.86666 22.6667 7.6 22.2667 7.2 21.8667C6.8 21.7334 6.66666 21.7334 6.66666 21.6001C6.66666 21.3334 7.06666 21.3334 7.2 21.3334C8 21.3334 8.66666 22.2667 8.93333 22.6667C9.6 23.7334 10.4 24.0001 10.8 24.0001C11.3333 24.0001 11.7333 23.8667 12 23.7334C12.1333 22.8001 12.5333 21.8667 13.3333 21.3334C10.2667 20.6667 8 18.9334 8 16.0001C8 14.5334 8.66666 13.0667 9.6 12.0001C9.46666 11.7334 9.33333 11.0667 9.33333 10.1334C9.33333 9.60005 9.33333 8.80005 9.73333 8.00005C9.73333 8.00005 11.6 8.00005 13.4667 9.73339C14.1333 9.46672 15.0667 9.33338 16 9.33338C16.9333 9.33338 17.8667 9.46672 18.6667 9.73339C20.4 8.00005 22.4 8.00005 22.4 8.00005C22.6667 8.80005 22.6667 9.60005 22.6667 10.1334C22.6667 11.2001 22.5333 11.7334 22.4 12.0001C23.3333 13.0667 24 14.4001 24 16.0001C24 18.9334 21.7333 20.6667 18.6667 21.3334C19.4667 22.0001 20 23.2001 20 24.4001V27.8667C20 28.2667 20.4 28.6667 20.9333 28.5334C25.8667 26.5334 29.3333 21.7334 29.3333 16.1334C29.3333 8.13339 22.5333 1.86672 14.5333 2.80005Z" fill="#E5E5E5"/>
</svg>
